# xmcd
#
# Track frame offsets:
# 150
# 16340
# 26170
# 42575
# 56402
# 69572
# 82820
# 95040
# 106742
# 123295
#
# Disc length: 1927 seconds
#
#
# Revision: 3
# Processed by: cddbd v1.5.1PL0 Copyright (c) Steve Scherf et al.
# Submitted via: FreeRIP 2.93 
#
DISCID=7b07850a
DTITLE=Haggard Merle - That's The Way Love Goes
DYEAR=1983
DGENRE=Country
TTITLE0=What Am I Gonna Do (With The Rest Of My Life)
TTITLE1=(I'm Gonna Paint Me) A Bed Of Roses
TTITLE2=Someday When Things Are Good
TTITLE3=That's The Way Love Goes
TTITLE4=Carryin' Fire
TTITLE5=Don't Seem Like We've Been Together All Our Lives
TTITLE6=If You Hated Me
TTITLE7=Love Will Find You
TTITLE8=The Last Boat Of The Day
TTITLE9=I Think I'll Stay
EXTD=
EXTT0=
EXTT1=
EXTT2=
EXTT3=
EXTT4=
EXTT5=
EXTT6=
EXTT7=
EXTT8=
EXTT9=
PLAYORDER=
